<svg width="30" height="31" viewBox="0 0 30 31" fill="none" xmlns="http://www.w3.org/2000/svg">
<rect x="0.5" y="1" width="29" height="29" rx="14.5" stroke="white"/>
<path d="M18 9H12C11.072 9.00099 10.1824 9.37006 9.52622 10.0262C8.87006 10.6824 8.50099 11.572 8.5 12.5V18.5C8.50099 19.428 8.87006 20.3176 9.52622 20.9738C10.1824 21.6299 11.072 21.999 12 22H18C18.928 21.999 19.8176 21.6299 20.4738 20.9738C21.1299 20.3176 21.499 19.428 21.5 18.5V12.5C21.499 11.572 21.1299 10.6824 20.4738 10.0262C19.8176 9.37006 18.928 9.00099 18 9ZM15 18.5C14.4067 18.5 13.8266 18.3241 13.3333 17.9944C12.8399 17.6648 12.4554 17.1962 12.2284 16.6481C12.0013 16.0999 11.9419 15.4967 12.0576 14.9147C12.1734 14.3328 12.4591 13.7982 12.8787 13.3787C13.2982 12.9591 13.8328 12.6734 14.4147 12.5576C14.9967 12.4419 15.5999 12.5013 16.1481 12.7284C16.6962 12.9554 17.1648 13.3399 17.4944 13.8333C17.8241 14.3266 18 14.9067 18 15.5C17.9992 16.2954 17.6828 17.058 17.1204 17.6204C16.558 18.1828 15.7954 18.4992 15 18.5ZM18.75 12.5C18.6017 12.5 18.4567 12.456 18.3333 12.3736C18.21 12.2912 18.1139 12.1741 18.0571 12.037C18.0003 11.9 17.9855 11.7492 18.0144 11.6037C18.0434 11.4582 18.1148 11.3246 18.2197 11.2197C18.3246 11.1148 18.4582 11.0433 18.6037 11.0144C18.7492 10.9855 18.9 11.0003 19.037 11.0571C19.1741 11.1139 19.2912 11.21 19.3736 11.3333C19.456 11.4567 19.5 11.6017 19.5 11.75C19.5 11.9489 19.421 12.1397 19.2803 12.2803C19.1397 12.421 18.9489 12.5 18.75 12.5ZM17 15.5C17 15.8956 16.8827 16.2822 16.6629 16.6111C16.4432 16.94 16.1308 17.1964 15.7654 17.3478C15.3999 17.4991 14.9978 17.5387 14.6098 17.4616C14.2219 17.3844 13.8655 17.1939 13.5858 16.9142C13.3061 16.6345 13.1156 16.2781 13.0384 15.8902C12.9613 15.5022 13.0009 15.1001 13.1522 14.7346C13.3036 14.3692 13.56 14.0568 13.8889 13.8371C14.2178 13.6173 14.6044 13.5 15 13.5C15.5304 13.5 16.0391 13.7107 16.4142 14.0858C16.7893 14.4609 17 14.9696 17 15.5Z" fill="white"/>
</svg>
