<svg width="30" height="31" viewBox="0 0 30 31" fill="none" xmlns="http://www.w3.org/2000/svg">
<rect x="0.5" y="1" width="29" height="29" rx="14.5" stroke="white"/>
<path d="M11.6276 10.833C11.6274 11.1866 11.4868 11.5257 11.2366 11.7756C10.9864 12.0256 10.6472 12.1659 10.2936 12.1657C9.93998 12.1655 9.60091 12.0249 9.35099 11.7747C9.10107 11.5245 8.96076 11.1853 8.96094 10.8317C8.96111 10.4781 9.10176 10.139 9.35193 9.88908C9.60211 9.63915 9.94132 9.49885 10.2949 9.49902C10.6486 9.4992 10.9876 9.63985 11.2376 9.89002C11.4875 10.1402 11.6278 10.4794 11.6276 10.833ZM11.6676 13.153H9.00094V21.4997H11.6676V13.153ZM15.8809 13.153H13.2276V21.4997H15.8543V17.1197C15.8543 14.6797 19.0343 14.453 19.0343 17.1197V21.4997H21.6676V16.213C21.6676 12.0997 16.9609 12.253 15.8543 14.273L15.8809 13.153Z" fill="white"/>
</svg>
