<svg width="30" height="31" viewBox="0 0 30 31" fill="none" xmlns="http://www.w3.org/2000/svg">
<rect x="0.5" y="1" width="29" height="29" rx="14.5" stroke="white"/>
<path d="M21.6673 11.3668C21.1662 11.5842 20.6363 11.7279 20.094 11.7935C20.6661 11.4517 21.0948 10.914 21.3007 10.2801C20.763 10.6002 20.1745 10.8257 19.5607 10.9468C19.1503 10.5019 18.604 10.2057 18.0072 10.1047C17.4104 10.0037 16.797 10.1037 16.2632 10.3889C15.7293 10.6742 15.3053 11.1285 15.0575 11.6807C14.8097 12.2329 14.7522 12.8517 14.894 13.4401C13.8069 13.3852 12.7436 13.1021 11.7731 12.6094C10.8026 12.1167 9.94655 11.4253 9.26065 10.5801C9.02008 11.0003 8.89366 11.476 8.89398 11.9601C8.89313 12.4097 9.00346 12.8526 9.21515 13.2492C9.42685 13.6458 9.73333 13.9839 10.1073 14.2335C9.67264 14.2216 9.24724 14.105 8.86732 13.8935V13.9268C8.87058 14.5567 9.09131 15.1662 9.49219 15.6521C9.89307 16.138 10.4495 16.4706 11.0673 16.5935C10.8295 16.6659 10.5826 16.704 10.334 16.7068C10.1619 16.7048 9.99027 16.6892 9.82065 16.6601C9.99659 17.202 10.3371 17.6756 10.7947 18.0149C11.2523 18.3543 11.8044 18.5425 12.374 18.5535C11.4121 19.3103 10.2246 19.7234 9.00065 19.7268C8.77781 19.7275 8.55514 19.7142 8.33398 19.6868C9.5836 20.4936 11.0399 20.922 12.5273 20.9201C13.5538 20.9308 14.5721 20.7368 15.5227 20.3495C16.4734 19.9622 17.3373 19.3894 18.0641 18.6645C18.7909 17.9395 19.366 17.0771 19.7557 16.1274C20.1454 15.1778 20.342 14.16 20.334 13.1335V12.7801C20.8571 12.39 21.3083 11.9118 21.6673 11.3668Z" fill="white"/>
</svg>
